<svg xmlns="http://www.w3.org/2000/svg" width="2047" height="1373">
<defs>
</defs>
<path d="M683,1373 C683,1373 0,1373 0,1373 C0,1373 0,0 0,0 C0,0 2047,0 2047,0 C2047,0 2046.96,405.993 2046.96,405.993 C1936.78,398.118 1826.32,391.667 1715.06,388.163 C1715.06,388.163 1544.11,385.069 1544.11,385.069 C1544.11,385.069 1433.98,385.017 1433.98,385.017 C1397.12,385 1361.8,389.106 1325.91,397.951 C1325.91,397.951 1173.91,435.405 1173.91,435.405 C1164.75,425.536 1154.04,418.715 1141.34,414.566 C1143.21,395.788 1135.32,375.548 1127.97,358.003 C1124.6,349.181 1122.64,339.779 1116.7,332.155 C1106.5,319.058 1093.42,308.988 1078.99,301.327 C1091.87,250.708 1069.32,198.955 1024.77,173.17 C1009.37,164.257 988.91,157.705 977.028,170.554 C966.77,181.647 972.335,196.656 977.919,211.909 C955.888,185.027 925.096,160.747 889.115,154.638 C877.431,152.654 865.796,154.1 855.316,159.307 C842.11,165.87 834.894,179.215 836.454,193.948 C837.794,206.615 844.633,217.689 855.3,224.729 C855.3,224.729 877.784,239.57 877.784,239.57 C879.305,239.853 878.643,241.747 877.167,240.784 C848.913,240.597 830.71,223.834 804.932,216.198 C787.453,211.021 768.739,210.113 751.885,216.728 C737.989,222.182 726.563,232.09 721.141,246.06 C714.696,262.664 719.321,280.364 730.531,293.405 C751.995,318.376 788.149,328.881 821.443,323.884 C812.241,333.149 800.881,337.799 788.659,339.582 C788.659,339.582 760.056,343.754 760.056,343.754 C739.316,346.779 726.996,365.942 732.71,386.237 C735.523,396.229 741.451,404.52 749.889,411.333 C786.414,440.822 843.636,444.655 878.797,410.846 C878.797,410.846 880.687,440.349 880.687,440.349 C883.92,464.388 890.444,487.151 899.736,510.319 C861.144,520.638 826.105,534.227 797.874,562.836 C787.924,573.98 780.513,585.894 774.39,599.363 C765.439,619.053 758.62,638.881 752.566,659.671 C752.566,659.671 731.582,731.734 731.582,731.734 C731.582,731.734 700.692,855.693 700.692,855.693 C700.692,855.693 681.198,945.936 681.198,945.936 C675.622,971.748 661.099,979.676 651.178,1000.07 C645.095,1012.58 641.35,1025.62 640.394,1039.33 C640.394,1039.33 636.228,1099.07 636.228,1099.07 C635.3,1134.04 636.626,1168.05 638.558,1202.91 C638.662,1204.78 638.853,1206.76 638.07,1207.55 C634.896,1210.73 611.47,1213.49 611.228,1240.18 C611.047,1260.21 612.739,1279.97 615.816,1299.92 C618.232,1315.58 625.25,1329.18 637.528,1338.5 C637.528,1338.5 681.263,1371.69 681.263,1371.69 C682.081,1371.84 682.996,1372 683,1373 Z " fill="rgb(243,237,234)"/>
<path d="M2046.96,405.993 C2046.96,405.993 2047,424.999 2047,424.999 C2047,424.999 1953.92,418.129 1953.92,418.129 C1953.92,418.129 1797.02,409.271 1797.02,409.271 C1797.02,409.271 1642.01,405.005 1642.01,405.005 C1642.01,405.005 1484.07,402.906 1484.07,402.906 C1484.07,402.906 1400.03,405.083 1400.03,405.083 C1377.99,405.654 1357.33,409.176 1335.96,414.342 C1335.96,414.342 1184.37,450.992 1184.37,450.992 C1184.37,450.992 1189.74,471.078 1189.74,471.078 C1189.74,471.078 1189.47,478.336 1189.47,478.336 C1189.39,480.651 1187.58,483.024 1184.91,482.222 C1184.91,482.222 1167.99,477.128 1167.99,477.128 C1161.54,475.184 1154.38,475.45 1147.18,476.203 C1145.02,478.183 1144.22,480.822 1143.08,483.047 C1139.74,489.545 1137.07,496.461 1134.81,504.157 C1134.81,504.157 1197.78,489.631 1197.78,489.631 C1197.78,489.631 1320.84,462.204 1320.84,462.204 C1340.17,457.896 1366.05,458.596 1379.46,472.443 C1385.12,478.289 1388.4,485.946 1390.17,493.755 C1390.17,493.755 1405.43,560.836 1405.43,560.836 C1405.43,560.836 1469.98,880.925 1469.98,880.925 C1469.98,880.925 1493.46,994.555 1493.46,994.555 C1493.46,994.555 1504.6,1054.1 1504.6,1054.1 C1507.77,1081.47 1505.55,1108.66 1495.14,1134.14 C1495.14,1134.14 1485.41,1153.78 1485.41,1153.78 C1485.41,1153.78 1469.93,1178.95 1469.93,1178.95 C1462.66,1190.77 1458.02,1203 1454.25,1215.68 C1449.13,1232.9 1446.31,1250.68 1445.44,1269.39 C1445.44,1269.39 1441,1372.99 1441,1372.99 C1441,1372.99 1422.99,1372.99 1422.99,1372.99 C1422.99,1372.99 1428.66,1262.73 1428.66,1262.73 C1429.53,1244.89 1432.24,1227.79 1437.14,1211.11 C1441.37,1196.72 1447.88,1183.01 1455.72,1169.81 C1455.72,1169.81 1467.3,1150.33 1467.3,1150.33 C1479.78,1129.32 1487.55,1111.69 1488.39,1085.03 C1488.83,1071 1488.27,1057.67 1485.54,1044.1 C1485.54,1044.1 1473.53,984.492 1473.53,984.492 C1473.53,984.492 1432.47,781.932 1432.47,781.932 C1432.47,781.932 1408.3,661.951 1408.3,661.951 C1408.3,661.951 1390.7,574.291 1390.7,574.291 C1390.7,574.291 1373.73,499.311 1373.73,499.311 C1372.8,495.239 1371,491.7 1368.97,487.954 C1362.39,475.872 1341.02,475.763 1326.92,478.772 C1326.92,478.772 1249.28,495.342 1249.28,495.342 C1249.28,495.342 1172.04,512.672 1172.04,512.672 C1172.04,512.672 1134.65,521.252 1134.65,521.252 C1134.65,521.252 1141.5,548.574 1141.5,548.574 C1141.5,548.574 1174.49,541.451 1174.49,541.451 C1174.49,541.451 1280.83,519.972 1280.83,519.972 C1280.83,519.972 1316.91,513.596 1316.91,513.596 C1329.27,511.412 1340.86,516.593 1348.41,526.767 C1353.08,533.066 1355.67,540.825 1357.34,548.732 C1357.34,548.732 1367.43,596.444 1367.43,596.444 C1367.43,596.444 1385.58,698.179 1385.58,698.179 C1385.58,698.179 1419.98,887.902 1419.98,887.902 C1419.98,887.902 1436.77,985.927 1436.77,985.927 C1436.77,985.927 1447.06,1043.94 1447.06,1043.94 C1448.82,1053.86 1448.56,1063.3 1445.73,1072.69 C1438.2,1097.66 1415.02,1102 1389.77,1097.01 C1389.77,1097.01 1087.1,1037.22 1087.1,1037.22 C1064.38,1032.73 1049.16,1013.43 1046.7,991.107 C1045.59,981.081 1046.51,972.095 1047.42,961.898 C1047.42,961.898 1055.98,855.002 1055.98,855.002 C1051.5,831.633 1046.28,809.504 1038.93,787.747 C1038.93,787.747 1031.99,848.136 1031.99,848.136 C1031.99,848.136 1013.29,1035.85 1013.29,1035.85 C1012.37,1045.17 1011.3,1053.79 1006.12,1060.63 C1006.12,1060.63 992.993,1077.96 992.993,1077.96 C988.605,1083.76 985.292,1089.78 982.916,1096.17 C978.981,1106.75 976.49,1118.04 975.874,1130.04 C975.874,1130.04 972.278,1200.02 972.278,1200.02 C972.278,1200.02 972.436,1287.7 972.436,1287.7 C972.436,1287.7 974.536,1367.09 974.536,1367.09 C974.596,1369.34 975.111,1371.07 973.935,1372.99 C973.935,1372.99 956.998,1372.98 956.998,1372.98 C956.998,1372.98 956.354,1346.54 956.354,1346.54 C956.354,1346.54 955.785,1178.13 955.785,1178.13 C955.7,1153.05 958.94,1110.69 966.89,1089.88 C971.665,1077.39 979.915,1066.59 988.236,1056.28 C993.752,1049.44 996.321,1042.27 997.198,1032.92 C997.198,1032.92 1007.5,923.034 1007.5,923.034 C1007.5,923.034 1018.1,830.018 1018.1,830.018 C1018.1,830.018 1026.7,756.964 1026.7,756.964 C1021.5,743.226 1015.4,729.839 1007.89,716.348 C1007.89,716.348 988.616,872.913 988.616,872.913 C988.616,872.913 978.175,958.907 978.175,958.907 C976.829,969.995 971.87,979.499 963.126,986.305 C954.997,992.632 943.678,994.167 932.876,991.627 C877.767,978.67 823.631,963.937 769.374,947.905 C755.404,943.777 745.545,934.032 745.749,918.834 C745.968,902.446 749.327,886.801 752.669,870.599 C763.377,818.691 775.635,767.996 790.275,717.18 C790.275,717.18 803.662,670.713 803.662,670.713 C807.125,658.693 810.975,647.082 816.799,635.923 C819.957,629.87 824.473,625.587 830.244,622.162 C839.82,616.481 849.84,612.657 860.773,609.612 C860.773,609.612 937.679,588.193 937.679,588.193 C937.679,588.193 927.314,570.295 927.314,570.295 C927.314,570.295 895.177,578.295 895.177,578.295 C895.177,578.295 815.047,600.94 815.047,600.94 C815.047,600.94 789.482,608.473 789.482,608.473 C774.356,647.67 762.757,687.295 751.525,727.691 C731.753,798.807 715.41,870.27 700.679,942.541 C695.852,966.221 691.767,973.04 678.772,990.905 C672.339,999.749 658.9,1016.82 668.307,1018.67 C677.361,1020.45 684.387,1027.35 684.362,1036.79 C684.362,1036.79 684.329,1049.74 684.329,1049.74 C684.329,1049.74 682.77,1085.03 682.77,1085.03 C682.77,1085.03 681.525,1147.6 681.525,1147.6 C681.269,1160.48 677.575,1173.52 665.332,1174.32 C665.332,1174.32 655.674,1174.95 655.674,1174.95 C655.674,1174.95 657.102,1212.89 657.102,1212.89 C657.102,1212.89 694.8,1236.39 694.8,1236.39 C698.887,1202.05 702.845,1161 727.249,1135.4 C737.249,1124.91 750.366,1119.38 765.03,1121.27 C775.021,1122.55 784.443,1124.67 793.981,1128.37 C816.311,1137.02 837.496,1147.51 857.526,1160.36 C877.016,1172.87 891.003,1190.35 899.266,1211.73 C904.9,1226.31 909.425,1240.35 912.26,1255.82 C912.26,1255.82 933.501,1371.72 933.501,1371.72 C932.903,1372.25 932.934,1372.77 932.995,1372.98 C932.995,1372.98 917.998,1372.97 917.998,1372.97 C911.846,1330.72 904.504,1288.66 894.321,1246.83 C894.321,1246.83 884.657,1216.3 884.657,1216.3 C877.211,1197.5 864.538,1182.44 847.195,1171.67 C824.098,1157.34 799.859,1145.5 774.093,1137.36 C760.197,1132.97 746.898,1135.68 737.3,1146.42 C729.379,1155.28 724.007,1165.86 720.299,1177.26 C720.299,1177.26 714.547,1202.76 714.547,1202.76 C714.218,1204.22 713.213,1206.34 714.485,1208.06 C715.622,1206.3 715.688,1205.19 716.065,1203.96 C717.975,1197.72 721.718,1191.68 726.969,1187.01 C740.18,1175.24 756.905,1179.25 773.101,1185.92 C789.188,1192.55 803.491,1201.29 818.053,1210.85 C829.092,1218.1 837.009,1227.5 842.659,1239.38 C850.01,1254.85 854.793,1270.86 857.924,1288.11 C857.924,1288.11 873,1373 873,1373 C873,1373 825.004,1372.99 825.004,1372.99 C820.572,1353.52 814.808,1325 801.05,1311.06 C795.27,1305.2 787.093,1304.5 781.037,1310.09 C766.935,1323.1 761.515,1353.43 759.001,1372.99 C759.001,1372.99 683,1373 683,1373 C682.996,1372 682.081,1371.84 681.263,1371.69 C681.263,1371.69 637.528,1338.5 637.528,1338.5 C625.25,1329.18 618.232,1315.58 615.816,1299.92 C612.739,1279.97 611.047,1260.21 611.228,1240.18 C611.47,1213.49 634.896,1210.73 638.07,1207.55 C638.853,1206.76 638.662,1204.78 638.558,1202.91 C636.626,1168.05 635.3,1134.04 636.228,1099.07 C636.228,1099.07 640.394,1039.33 640.394,1039.33 C641.35,1025.62 645.095,1012.58 651.178,1000.07 C661.099,979.676 675.622,971.748 681.198,945.936 C681.198,945.936 700.692,855.693 700.692,855.693 C700.692,855.693 731.582,731.734 731.582,731.734 C731.582,731.734 752.566,659.671 752.566,659.671 C758.62,638.881 765.439,619.053 774.39,599.363 C780.513,585.894 787.924,573.98 797.874,562.836 C826.105,534.227 861.144,520.638 899.736,510.319 C890.444,487.151 883.92,464.388 880.687,440.349 C880.687,440.349 878.797,410.846 878.797,410.846 C843.636,444.655 786.414,440.822 749.889,411.333 C741.451,404.52 735.523,396.229 732.71,386.237 C726.996,365.942 739.316,346.779 760.056,343.754 C760.056,343.754 788.659,339.582 788.659,339.582 C800.881,337.799 812.241,333.149 821.443,323.884 C788.149,328.881 751.995,318.376 730.531,293.405 C719.321,280.364 714.696,262.664 721.141,246.06 C726.563,232.09 737.989,222.182 751.885,216.728 C768.739,210.113 787.453,211.021 804.932,216.198 C830.71,223.834 848.913,240.597 877.167,240.784 C878.643,241.747 879.305,239.853 877.784,239.57 C877.784,239.57 855.3,224.729 855.3,224.729 C844.633,217.689 837.794,206.615 836.454,193.948 C834.894,179.215 842.11,165.87 855.316,159.307 C865.796,154.1 877.431,152.654 889.115,154.638 C925.096,160.747 955.888,185.027 977.919,211.909 C972.335,196.656 966.77,181.647 977.028,170.554 C988.91,157.705 1009.37,164.257 1024.77,173.17 C1069.32,198.955 1091.87,250.708 1078.99,301.327 C1093.42,308.988 1106.5,319.058 1116.7,332.155 C1122.64,339.779 1124.6,349.181 1127.97,358.003 C1135.32,375.548 1143.21,395.788 1141.34,414.566 C1154.04,418.715 1164.75,425.536 1173.91,435.405 C1173.91,435.405 1325.91,397.951 1325.91,397.951 C1361.8,389.106 1397.12,385 1433.98,385.017 C1433.98,385.017 1544.11,385.069 1544.11,385.069 C1544.11,385.069 1715.06,388.163 1715.06,388.163 C1826.32,391.667 1936.78,398.118 2046.96,405.993 Z M763.683,355.673 C757.352,356.519 750.406,360.439 747.654,366.473 C743.698,375.145 746.281,385.46 752.071,392.979 C770.106,416.402 811.634,427.182 841.322,417.348 C858.319,411.02 872.036,399.204 882.196,384.203 C886.159,367.46 892.094,352.612 902.278,339.332 C939.341,289.47 1003.06,290.662 1049.32,330.601 C1088.04,281.125 1067.91,213.164 1015.76,183.398 C1006.35,178.025 994.774,173.56 987.581,179.15 C977.372,187.082 995.092,206.867 996.484,224.121 C996.853,228.684 996.75,234.08 993.402,237.544 C989.479,241.603 982.33,239.915 979,234.755 C962.254,208.812 939.459,187.667 911.128,174.849 C899.001,169.362 886.373,166.038 873.405,167.428 C863.857,168.451 854.129,173.601 850.829,182.745 C847.193,192.82 852.048,203.543 859.372,210.65 C870.459,221.408 887.352,225.869 894.297,235.605 C897.121,239.564 897.216,244.216 893.874,248.077 C884.031,259.446 852.643,251.968 837.122,244.854 C837.122,244.854 815.129,234.772 815.129,234.772 C788.741,222.675 753.196,221.089 737.02,245.981 C729.92,256.908 730.867,270.368 738.35,280.715 C751.958,299.529 776.781,310.183 799.972,311.292 C819.629,312.233 833.324,303.635 839.589,310.72 C841.747,313.161 842.527,317.139 840.858,321.005 C832.667,339.982 809.403,349.565 789.089,352.279 C789.089,352.279 763.683,355.673 763.683,355.673 Z M1039.54,379.022 C1053.01,395.265 1058.71,414.669 1058.71,435.853 C1064.53,425.198 1071.13,417.53 1081.51,413.699 C1076.37,399.067 1075.73,384.89 1080.31,371.324 C1084.41,356.975 1099.35,349.642 1113.14,355.998 C1111.39,350.22 1108.6,344.885 1104.07,341.045 C1093.1,331.747 1081.26,347.232 1078.16,339.787 C1075.6,333.616 1081.35,327.332 1087.83,325.198 C1084.35,320.331 1079.29,317.81 1074.05,315.783 C1069.31,325.565 1064.7,334.769 1057.08,341.839 C1052.63,345.966 1048.34,345.696 1043.9,342.056 C1030.27,330.859 1015.31,322.26 998.013,317.913 C971.893,311.347 944.391,317.418 924.941,335.927 C907.158,352.849 896.818,375.336 894.635,399.667 C892.458,423.915 895.653,447.442 902.342,470.701 C917.29,522.677 941.461,566.411 968.777,612.244 C968.777,612.244 985.417,598.371 985.417,598.371 C1001.86,585.938 1014.86,569.315 1021.89,549.43 C986.011,550.21 941.491,524.477 943.789,486.061 C944.781,469.493 954.88,456.156 969.395,447.705 C961.369,426.436 956.134,405.646 966.546,384.454 C974.911,367.429 993.196,358.648 1011.94,362.335 C1022.87,364.484 1031.86,370.354 1039.54,379.022 Z M1104.99,396.044 C1108.92,396.046 1112.25,394.413 1115.99,392.687 C1118.62,398.742 1119.34,404.442 1119.37,411.061 C1119.37,411.061 1129.45,412.308 1129.45,412.308 C1128.53,394.672 1123.22,369.768 1108.16,363.789 C1099.4,360.308 1091.67,365.199 1088.63,373.921 C1084.56,385.597 1085.24,398.686 1089.75,410.312 C1088.55,400.36 1087.37,391.292 1093.58,383.689 C1097.73,378.613 1106.8,378.08 1109.98,384.059 C1107.66,387.242 1103.94,391.302 1104.99,396.044 Z M1007.65,413.747 C1013.01,416.454 1018.08,412.992 1021.84,408.742 C1028.45,418.427 1029.3,430.241 1024.89,440.688 C1033.27,442.994 1040.4,446.241 1047.27,450.929 C1054.54,421.463 1040.41,381.414 1012.06,373.049 C999.378,369.307 986.9,373.752 979.203,384.265 C966.581,401.506 970.926,423.933 978.229,442.841 C978.229,442.841 990.732,439.113 990.732,439.113 C983.987,427.828 981.944,414.506 988.059,403.237 C990.813,398.163 995.464,395.193 999.89,394.249 C1004.63,393.239 1011.27,394.997 1013.68,399.025 C1012.16,403.43 1007.17,407.501 1007.65,413.747 Z M1104.22,476.647 C1129.07,466.028 1153.34,459.728 1178.2,468.637 C1174.03,448.283 1160.46,432.993 1141.58,426.39 C1125.58,420.795 1108.02,419.422 1091.46,422.288 C1081.73,423.972 1074.41,429.571 1070.23,438.235 C1061.7,455.922 1053.39,470.447 1033.56,477.237 C1036.79,480.284 1041.02,481.471 1045.34,482.61 C1065.14,487.824 1085.04,485.078 1104.22,476.647 Z M1069.83,599.469 C1070.56,597.85 1072.22,596.538 1073.39,597.009 C1077.16,598.529 1069.31,625.077 1065.35,636.32 C1065.35,636.32 1053.08,659.965 1053.08,659.965 C1054.77,669.27 1068.07,671.549 1075.72,667.532 C1098.72,655.453 1104.57,623.692 1103.45,597.915 C1103.45,597.915 1102.45,574.83 1102.45,574.83 C1078.72,570.775 1058.74,559.968 1042.58,543.372 C1029.63,530.072 1019.62,514.845 1013.76,497.178 C1010,485.846 1015.01,475.573 1025.62,470.527 C1032.12,467.436 1038.45,464.02 1044.26,458.777 C1019.03,444.279 985.61,443.526 965.496,464.166 C953.494,476.482 952.051,493.57 961.06,508.071 C975.701,531.64 1006.38,540.159 1034.12,537.509 C1034.19,568.341 1012.3,594.665 989.689,612.673 C975.658,623.848 961.093,640.81 961.732,658.913 C962.181,671.651 970.941,681.663 983.357,683.67 C995.225,685.589 1006.98,682.023 1017.08,675.021 C1036.49,661.556 1050.2,642.99 1059.78,621.765 C1059.78,621.765 1069.83,599.469 1069.83,599.469 Z M1025.3,496.946 C1030.02,508.601 1036.34,518.926 1044.28,528.786 C1066.86,556.814 1099.99,568.735 1136.03,563.733 C1129.83,544.966 1120.3,520.677 1124.28,504.061 C1126.47,494.911 1130.26,486.811 1134.08,478.347 C1123.13,479.265 1115.97,501.135 1115.96,512.966 C1115.94,526.08 1124.92,541.078 1124.16,556.477 C1115.6,556.414 1107.9,554.037 1099.99,550.798 C1066.91,537.237 1043.42,514.218 1024.34,484.143 C1022.34,488.913 1023.73,493.061 1025.3,496.946 Z M1092.77,511.372 C1089.92,508.713 1086.31,507.102 1082.51,508.566 C1083.28,511.976 1084.95,513.989 1084.81,517.525 C1076.35,508.88 1062.84,502.15 1056.56,511.044 C1069.86,524.126 1084.95,533.598 1101.63,540.556 C1106.58,531.812 1099.88,518.013 1092.77,511.372 Z M836.247,578.369 C836.247,578.369 919.592,555.641 919.592,555.641 C919.592,555.641 914.547,544.504 914.547,544.504 C914.547,544.504 906.628,526.87 906.628,526.87 C906.628,526.87 888.209,532.308 888.209,532.308 C855.241,542.041 819.438,559.273 799.932,588.96 C799.932,588.96 836.247,578.369 836.247,578.369 Z M1205.96,849.115 C1205.96,849.115 1220.01,856.998 1220.01,856.998 C1229.9,862.542 1240.58,865.981 1251.85,866.296 C1251.63,852.06 1246.88,839.726 1240.07,827.964 C1238.4,825.086 1236.51,821.479 1237.42,818.393 C1239.22,812.271 1248.74,821.082 1261.99,820.011 C1269.82,819.378 1277.33,818.158 1284.87,815.343 C1277.01,802.232 1259.84,795.454 1255.84,787.884 C1253.21,782.906 1273.26,785.649 1283.57,782.377 C1264.68,768.712 1247.33,755.723 1231.59,740.492 C1229.34,740.905 1227.29,738.696 1227.53,736.69 C1227.53,736.69 1221.35,730.413 1221.35,730.413 C1219.68,731.148 1217.78,729.267 1218.5,727.464 C1194.94,702.523 1174.46,675.349 1156.26,645.76 C1142.66,623.656 1132.27,600.722 1123.74,576.136 C1123.74,576.136 1113.5,575.907 1113.5,575.907 C1113.5,575.907 1115.81,609.034 1115.81,609.034 C1115.72,635.416 1107.51,663.469 1085.1,677.978 C1071.07,686.37 1053.52,684.488 1043.08,671.398 C1034.28,680.631 1025.03,687.486 1013.85,693.449 C1013.85,693.449 1035.73,737.319 1035.73,737.319 C1061.17,795.786 1076.12,850.607 1076.37,915.168 C1086.49,905.625 1093.28,894.779 1098.74,882.782 C1098.74,882.782 1106.76,865.148 1106.76,865.148 C1116.76,876.972 1117.99,894.404 1129.07,906.606 C1138.17,895.205 1142.87,882.172 1145.47,868.355 C1146.26,864.175 1146.71,859.977 1150.12,856.419 C1150.12,856.419 1167.2,873.801 1167.2,873.801 C1175.6,882.342 1184.55,889.723 1196.11,893.978 C1199.91,884.406 1200.28,874.327 1199.01,864.007 C1198.07,856.306 1198.79,848.534 1202.66,848.336 C1203.53,848.291 1204.86,848.498 1205.96,849.115 Z M1364.56,686.135 C1364.56,686.135 1356.6,640.336 1356.6,640.336 C1351.62,638.15 1346.61,638.067 1340.89,637.591 C1340.89,637.591 1239.03,637.124 1239.03,637.124 C1239.03,637.124 1168.69,636.608 1168.69,636.608 C1202.22,690.932 1240.1,735.887 1293.12,768.838 C1297.51,755.172 1307.44,743.639 1321.27,741.431 C1321.27,741.431 1374.09,738.03 1374.09,738.03 C1374.09,738.03 1364.56,686.135 1364.56,686.135 Z M840.422,855.85 C840.422,855.85 929.913,845.128 929.913,845.128 C929.913,845.128 976.306,840.889 976.306,840.889 C976.306,840.889 985.143,771.045 985.143,771.045 C985.143,771.045 995.779,698.493 995.779,698.493 C984.816,699.483 975.458,698.157 966.839,693.163 C951.616,684.343 943.899,667.568 947.113,649.708 C947.113,649.708 897.057,653.75 897.057,653.75 C886.474,654.604 877.062,660.503 873.374,670.225 C873.374,670.225 862.63,702.756 862.63,702.756 C851.349,736.915 843.166,771.377 835.669,806.636 C835.669,806.636 828.498,840.357 828.498,840.357 C826.896,847.889 831.918,855.36 840.422,855.85 Z M1360.23,1070.55 C1360.23,1070.55 1339.66,1011.34 1339.66,1011.34 C1339.66,1011.34 1328.82,986.2 1328.82,986.2 C1324.23,975.538 1314.8,968.387 1303.19,966.667 C1303.19,966.667 1249.83,958.76 1249.83,958.76 C1249.83,958.76 1068.35,938.321 1068.35,938.321 C1068.35,938.321 1065.24,975.979 1065.24,975.979 C1064.46,985.526 1065.34,994.875 1069.68,1003.16 C1074.47,1011.45 1081.44,1017.14 1091.05,1019.07 C1091.05,1019.07 1173.35,1035.61 1173.35,1035.61 C1173.35,1035.61 1305.83,1061.31 1305.83,1061.31 C1305.83,1061.31 1360.23,1070.55 1360.23,1070.55 Z M667.211,1149.51 C667.211,1149.51 667.471,1117.97 667.471,1117.97 C667.471,1117.97 667.557,1108.51 667.557,1108.51 C667.557,1108.51 670.457,1042.08 670.457,1042.08 C670.741,1035.56 666.386,1030.67 659.931,1030.95 C659.931,1030.95 656.161,1063.13 656.161,1063.13 C653.823,1094.68 653.408,1126.17 654.789,1158.27 C657.283,1160.33 662.493,1160.51 665.189,1158.18 C667.113,1156.51 667.185,1152.56 667.211,1149.51 Z M685.965,1352.98 C690.486,1356.44 694.618,1359.57 700.245,1361.71 C700.245,1361.71 700.092,1320.96 700.092,1320.96 C700.092,1320.96 705.372,1261.14 705.372,1261.14 C705.372,1261.14 646.69,1223.98 646.69,1223.98 C641.134,1226.67 636.189,1228.11 631.864,1231.98 C629.566,1235.74 629.01,1240.44 629.069,1245.06 C629.292,1262.61 631.045,1279.65 633.749,1296.94 C635.75,1309.73 641.838,1319.28 652.039,1327.07 C652.039,1327.07 685.965,1352.98 685.965,1352.98 Z " fill="rgb(21,22,58)"/>
<path d="M1492.94,454.056 C1492.89,454.311 1493.03,455.216 1494.15,455.001 C1494.15,455.001 1648.85,455.001 1648.85,455.001 C1649.97,455.216 1650.11,454.311 1650,453.986 C1650,453.986 1651.01,454.164 1651.01,454.164 C1651.01,454.164 1758.9,455.227 1758.9,455.227 C1758.9,455.227 1781.62,455.512 1781.62,455.512 C1781.62,455.512 1915.85,459.799 1915.85,459.799 C1915.85,459.799 1944.35,460.679 1944.35,460.679 C1944.35,460.679 2045.12,465.766 2045.12,465.766 C2045.61,465.208 2046.61,464.81 2046.97,464.966 C2046.97,464.966 2047,573 2047,573 C2047,573 1972.06,578.233 1972.06,578.233 C1972.06,578.233 1940.1,582.031 1940.1,582.031 C1922.67,584.102 1919.23,606.996 1922.21,625.191 C1922.21,625.191 1947.7,780.859 1947.7,780.859 C1947.7,780.859 1954.73,825.185 1954.73,825.185 C1956.93,839.038 1967.95,849.443 1982.05,851.016 C1998.47,819.921 2017.58,794.767 2047,776.082 C2047,776.082 2046.97,836.02 2046.97,836.02 C2046.74,835.811 2046.19,835.762 2045.93,836.104 C2045.93,836.104 2031.68,854.914 2031.68,854.914 C2031.68,854.914 2046.99,856.005 2046.99,856.005 C2046.99,856.005 2046.99,1015.03 2046.99,1015.03 C2046.99,1015.03 1885.02,1029.6 1885.02,1029.6 C1885.02,1029.6 1774.04,1040.04 1774.04,1040.04 C1774.04,1040.04 1641,1053.63 1641,1053.63 C1641,1053.63 1611.86,1055.29 1611.86,1055.29 C1584.63,1054.35 1559.48,1037.64 1550.61,1011.64 C1550.61,1011.64 1536.1,952.914 1536.1,952.914 C1536.1,952.914 1501.74,800.308 1501.74,800.308 C1501.74,800.308 1471.71,658.125 1471.71,658.125 C1471.71,658.125 1447.7,544.183 1447.7,544.183 C1441.36,514.108 1437.72,485.538 1461.87,464.855 C1468.83,458.898 1477.41,456.574 1485.98,455.184 C1485.98,455.184 1492.94,454.056 1492.94,454.056 Z M1721.14,836.747 C1722.56,808.831 1725.65,782.537 1734.2,757.442 C1738.83,743.844 1748.26,735.231 1761.71,731.501 C1776.21,727.478 1790.72,724.943 1806,724.175 C1806,724.175 1839.69,722.481 1839.69,722.481 C1839.69,722.481 1835.08,693.947 1835.08,693.947 C1835.08,693.947 1823.43,623.733 1823.43,623.733 C1821.25,616.272 1819.81,608.324 1814.74,602.249 C1809.68,596.19 1801.44,594.545 1793.78,595.504 C1793.78,595.504 1665.72,611.53 1665.72,611.53 C1665.72,611.53 1593.98,623.909 1593.98,623.909 C1580.48,626.238 1572.01,637.482 1569.6,650.849 C1569.6,650.849 1555.72,727.864 1555.72,727.864 C1555.72,727.864 1551.41,757.147 1551.41,757.147 C1556.33,763.928 1559.18,771.382 1561.71,779.277 C1561.71,779.277 1577.46,828.499 1577.46,828.499 C1583.89,830.912 1590.08,831.428 1597.1,831.769 C1597.1,831.769 1693.9,836.468 1693.9,836.468 C1703.28,836.923 1711.82,837.908 1721.14,836.747 Z " fill="rgb(21,23,59)"/>
<path d="M2047,442 C2047,442 2046.97,464.966 2046.97,464.966 C2046.61,464.81 2045.61,465.208 2045.12,465.766 C2045.12,465.766 1944.35,460.679 1944.35,460.679 C1944.35,460.679 1915.85,459.799 1915.85,459.799 C1915.85,459.799 1781.62,455.512 1781.62,455.512 C1781.62,455.512 1758.9,455.227 1758.9,455.227 C1758.9,455.227 1651.01,454.164 1651.01,454.164 C1651.04,453.89 1651.1,453.521 1650.68,452.998 C1650.68,452.998 1487.38,453.012 1487.38,453.012 C1486.55,453.656 1485.94,454.531 1485.98,455.184 C1477.41,456.574 1468.83,458.898 1461.87,464.855 C1437.72,485.538 1441.36,514.108 1447.7,544.183 C1447.7,544.183 1471.71,658.125 1471.71,658.125 C1471.71,658.125 1501.74,800.308 1501.74,800.308 C1501.74,800.308 1536.1,952.914 1536.1,952.914 C1536.1,952.914 1550.61,1011.64 1550.61,1011.64 C1559.48,1037.64 1584.63,1054.35 1611.86,1055.29 C1611.86,1055.29 1641,1053.63 1641,1053.63 C1641,1053.63 1774.04,1040.04 1774.04,1040.04 C1774.04,1040.04 1885.02,1029.6 1885.02,1029.6 C1885.02,1029.6 2046.99,1015.03 2046.99,1015.03 C2046.99,1015.03 2046.97,1048.01 2046.97,1048.01 C2045.09,1047.27 2043.51,1047.65 2040.81,1047.9 C2040.81,1047.9 1880.43,1062.41 1880.43,1062.41 C1880.43,1062.41 1672.06,1084.75 1672.06,1084.75 C1672.06,1084.75 1599.01,1095.88 1599.01,1095.88 C1586.53,1097.78 1569.04,1103.04 1567.38,1113.74 C1566.64,1118.45 1568.7,1122.73 1572.26,1125.77 C1579.62,1132.04 1587.69,1136.75 1596.89,1140.23 C1596.89,1140.23 1649.88,1160.26 1649.88,1160.26 C1649.88,1160.26 2046.99,1300 2046.99,1300 C2046.99,1300 2047,1344.8 2047,1344.8 C2047,1344.8 1986.65,1322.06 1986.65,1322.06 C1875.29,1279.84 1763.7,1238.99 1650.32,1201.55 C1596.74,1183.86 1543.02,1168.15 1488.65,1155.46 C1488.65,1155.46 1485.41,1153.78 1485.41,1153.78 C1485.41,1153.78 1495.14,1134.14 1495.14,1134.14 C1505.55,1108.66 1507.77,1081.47 1504.6,1054.1 C1504.6,1054.1 1493.46,994.555 1493.46,994.555 C1493.46,994.555 1469.98,880.925 1469.98,880.925 C1469.98,880.925 1405.43,560.836 1405.43,560.836 C1405.43,560.836 1390.17,493.755 1390.17,493.755 C1388.4,485.946 1385.12,478.289 1379.46,472.443 C1366.05,458.596 1340.17,457.896 1320.84,462.204 C1320.84,462.204 1197.78,489.631 1197.78,489.631 C1197.78,489.631 1134.81,504.157 1134.81,504.157 C1137.07,496.461 1139.74,489.545 1143.08,483.047 C1143.08,483.047 1165.12,477.844 1165.12,477.844 C1165.92,477.653 1167.87,478.853 1167.99,477.128 C1167.99,477.128 1184.91,482.222 1184.91,482.222 C1187.58,483.024 1189.39,480.651 1189.47,478.336 C1189.47,478.336 1189.74,471.078 1189.74,471.078 C1245.81,456.319 1302.31,443.306 1359.81,431.696 C1380.6,427.499 1400.02,425.217 1421.04,424.901 C1421.04,424.901 1514.59,423.491 1514.59,423.491 C1514.59,423.491 1589.41,423.509 1589.41,423.509 C1589.41,423.509 1677.16,424.192 1677.16,424.192 C1800.87,425.156 1924.04,431.573 2047,442 Z " fill="rgb(231,104,83)"/>
<path d="M1437.14,1211.11 C1432.24,1227.79 1429.53,1244.89 1428.66,1262.73 C1428.66,1262.73 1422.99,1372.99 1422.99,1372.99 C1422.99,1372.99 973.935,1372.99 973.935,1372.99 C975.111,1371.07 974.596,1369.34 974.536,1367.09 C974.536,1367.09 972.436,1287.7 972.436,1287.7 C972.436,1287.7 972.278,1200.02 972.278,1200.02 C972.278,1200.02 975.874,1130.04 975.874,1130.04 C976.49,1118.04 978.981,1106.75 982.916,1096.17 C982.916,1096.17 1084.31,1124.76 1084.31,1124.76 C1084.31,1124.76 1246.71,1164.34 1246.71,1164.34 C1246.71,1164.34 1429.16,1208.54 1429.16,1208.54 C1432.28,1209.29 1434.64,1209.79 1437.14,1211.11 Z M1095.02,1221.11 C1103.17,1221.07 1109.89,1216.73 1113.27,1209.08 C1118.14,1198.03 1119.49,1185.31 1117.78,1173.13 C1116.39,1163.3 1109.69,1155.91 1100.15,1153.65 C1100.15,1153.65 1025.11,1135.9 1025.11,1135.9 C1016.24,1133.8 1008.06,1137.44 1005.27,1146.51 C1002.02,1157.06 1001.84,1169.16 1003.72,1180.17 C1005.66,1191.53 1013.56,1199.63 1024.25,1202.84 C1024.25,1202.84 1078.87,1219.25 1078.87,1219.25 C1084.21,1220.86 1089.43,1221.13 1095.02,1221.11 Z " fill="rgb(231,105,83)"/>
<path d="M2046.99,1065 C2046.99,1065 2046.99,1281 2046.99,1281 C2046.99,1281 2039.71,1278.86 2039.71,1278.86 C2039.71,1278.86 1650.34,1142.64 1650.34,1142.64 C1650.34,1142.64 1608.3,1126.69 1608.3,1126.69 C1601.56,1124.14 1595.55,1121.15 1589.08,1117.21 C1593.58,1114.05 1597.71,1113.08 1602.34,1112.39 C1602.34,1112.39 1655.46,1104.37 1655.46,1104.37 C1655.46,1104.37 1934.84,1074.81 1934.84,1074.81 C1934.84,1074.81 2046.99,1065 2046.99,1065 Z " fill="rgb(232,104,83)"/>
<path d="M1950,1373 C1950,1373 1441,1372.99 1441,1372.99 C1441,1372.99 1445.44,1269.39 1445.44,1269.39 C1446.31,1250.68 1449.13,1232.9 1454.25,1215.68 C1454.25,1215.68 1603.16,1258.92 1603.16,1258.92 C1603.16,1258.92 1699.85,1289.53 1699.85,1289.53 C1699.85,1289.53 1825.53,1330.7 1825.53,1330.7 C1825.53,1330.7 1949.62,1372.2 1949.62,1372.2 C1950.14,1372.37 1950.14,1372.74 1950,1373 Z " fill="rgb(231,105,83)"/>
<path d="M2047,1344.8 C2047,1344.8 2047,1373 2047,1373 C2047,1373 1950,1373 1950,1373 C1950.14,1372.74 1950.14,1372.37 1949.62,1372.2 C1949.62,1372.2 1825.53,1330.7 1825.53,1330.7 C1825.53,1330.7 1699.85,1289.53 1699.85,1289.53 C1699.85,1289.53 1603.16,1258.92 1603.16,1258.92 C1603.16,1258.92 1454.25,1215.68 1454.25,1215.68 C1458.02,1203 1462.66,1190.77 1469.93,1178.95 C1469.93,1178.95 1485.41,1153.78 1485.41,1153.78 C1485.41,1153.78 1488.65,1155.46 1488.65,1155.46 C1543.02,1168.15 1596.74,1183.86 1650.32,1201.55 C1763.7,1238.99 1875.29,1279.84 1986.65,1322.06 C1986.65,1322.06 2047,1344.8 2047,1344.8 Z " fill="rgb(244,238,234)"/>
<path d="M2047,573 C2047,573 2047,776.082 2047,776.082 C2017.58,794.767 1998.47,819.921 1982.05,851.016 C1967.95,849.443 1956.93,839.038 1954.73,825.185 C1954.73,825.185 1947.7,780.859 1947.7,780.859 C1947.7,780.859 1922.21,625.191 1922.21,625.191 C1919.23,606.996 1922.67,584.102 1940.1,582.031 C1940.1,582.031 1972.06,578.233 1972.06,578.233 C1972.06,578.233 2047,573 2047,573 Z " fill="rgb(244,237,234)"/>
<path d="M2046.97,1048.01 C2046.97,1048.01 2046.99,1065 2046.99,1065 C2046.99,1065 1934.84,1074.81 1934.84,1074.81 C1934.84,1074.81 1655.46,1104.37 1655.46,1104.37 C1655.46,1104.37 1602.34,1112.39 1602.34,1112.39 C1597.71,1113.08 1593.58,1114.05 1589.08,1117.21 C1595.55,1121.15 1601.56,1124.14 1608.3,1126.69 C1608.3,1126.69 1650.34,1142.64 1650.34,1142.64 C1650.34,1142.64 2039.71,1278.86 2039.71,1278.86 C2039.71,1278.86 2046.99,1281 2046.99,1281 C2046.99,1281 2046.99,1300 2046.99,1300 C2046.99,1300 1649.88,1160.26 1649.88,1160.26 C1649.88,1160.26 1596.89,1140.23 1596.89,1140.23 C1587.69,1136.75 1579.62,1132.04 1572.26,1125.77 C1568.7,1122.73 1566.64,1118.45 1567.38,1113.74 C1569.04,1103.04 1586.53,1097.78 1599.01,1095.88 C1599.01,1095.88 1672.06,1084.75 1672.06,1084.75 C1672.06,1084.75 1880.43,1062.41 1880.43,1062.41 C1880.43,1062.41 2040.81,1047.9 2040.81,1047.9 C2043.51,1047.65 2045.09,1047.27 2046.97,1048.01 Z " fill="rgb(21,21,57)"/>
<path d="M2047,424.999 C2047,424.999 2047,442 2047,442 C1924.04,431.573 1800.87,425.156 1677.16,424.192 C1677.16,424.192 1589.41,423.509 1589.41,423.509 C1589.41,423.509 1514.59,423.491 1514.59,423.491 C1514.59,423.491 1421.04,424.901 1421.04,424.901 C1400.02,425.217 1380.6,427.499 1359.81,431.696 C1302.31,443.306 1245.81,456.319 1189.74,471.078 C1189.74,471.078 1184.37,450.992 1184.37,450.992 C1184.37,450.992 1335.96,414.342 1335.96,414.342 C1357.33,409.176 1377.99,405.654 1400.03,405.083 C1400.03,405.083 1484.07,402.906 1484.07,402.906 C1484.07,402.906 1642.01,405.005 1642.01,405.005 C1642.01,405.005 1797.02,409.271 1797.02,409.271 C1797.02,409.271 1953.92,418.129 1953.92,418.129 C1953.92,418.129 2047,424.999 2047,424.999 Z " fill="rgb(244,237,234)"/>
<path d="M917.998,1372.97 C917.998,1372.97 873,1373 873,1373 C873,1373 857.924,1288.11 857.924,1288.11 C854.793,1270.86 850.01,1254.85 842.659,1239.38 C837.009,1227.5 829.092,1218.1 818.053,1210.85 C803.491,1201.29 789.188,1192.55 773.101,1185.92 C756.905,1179.25 740.18,1175.24 726.969,1187.01 C721.718,1191.68 717.975,1197.72 716.065,1203.96 C715.284,1204.13 714.776,1203.5 714.547,1202.76 C714.547,1202.76 720.299,1177.26 720.299,1177.26 C724.007,1165.86 729.379,1155.28 737.3,1146.42 C746.898,1135.68 760.197,1132.97 774.093,1137.36 C799.859,1145.5 824.098,1157.34 847.195,1171.67 C864.538,1182.44 877.211,1197.5 884.657,1216.3 C884.657,1216.3 894.321,1246.83 894.321,1246.83 C904.504,1288.66 911.846,1330.72 917.998,1372.97 Z " fill="rgb(243,237,234)"/>
<path d="M825.004,1372.99 C825.004,1372.99 759.001,1372.99 759.001,1372.99 C761.515,1353.43 766.935,1323.1 781.037,1310.09 C787.093,1304.5 795.27,1305.2 801.05,1311.06 C814.808,1325 820.572,1353.52 825.004,1372.99 Z " fill="rgb(243,237,234)"/>
<path d="M2046.99,856.005 C2046.99,856.005 2031.68,854.914 2031.68,854.914 C2031.68,854.914 2045.93,836.104 2045.93,836.104 C2046.19,835.762 2046.74,835.811 2046.97,836.02 C2046.97,836.02 2046.99,856.005 2046.99,856.005 Z " fill="rgb(243,236,235)"/>
<path d="M1467.3,1150.33 C1463.69,1150.93 1460.85,1149.47 1456.9,1148.74 C1456.9,1148.74 1229.09,1106.9 1229.09,1106.9 C1229.09,1106.9 1110.33,1084.63 1110.33,1084.63 C1110.33,1084.63 1013.73,1063.45 1013.73,1063.45 C1010.99,1062.85 1008.76,1062.39 1006.12,1060.63 C1011.3,1053.79 1012.37,1045.17 1013.29,1035.85 C1013.29,1035.85 1031.99,848.136 1031.99,848.136 C1031.99,848.136 1038.93,787.747 1038.93,787.747 C1046.28,809.504 1051.5,831.633 1055.98,855.002 C1055.98,855.002 1047.42,961.898 1047.42,961.898 C1046.51,972.095 1045.59,981.081 1046.7,991.107 C1049.16,1013.43 1064.38,1032.73 1087.1,1037.22 C1087.1,1037.22 1389.77,1097.01 1389.77,1097.01 C1415.02,1102 1438.2,1097.66 1445.73,1072.69 C1448.56,1063.3 1448.82,1053.86 1447.06,1043.94 C1447.06,1043.94 1436.77,985.927 1436.77,985.927 C1436.77,985.927 1419.98,887.902 1419.98,887.902 C1419.98,887.902 1385.58,698.179 1385.58,698.179 C1385.58,698.179 1367.43,596.444 1367.43,596.444 C1367.43,596.444 1357.34,548.732 1357.34,548.732 C1355.67,540.825 1353.08,533.066 1348.41,526.767 C1340.86,516.593 1329.27,511.412 1316.91,513.596 C1316.91,513.596 1280.83,519.972 1280.83,519.972 C1280.83,519.972 1174.49,541.451 1174.49,541.451 C1174.49,541.451 1141.5,548.574 1141.5,548.574 C1141.5,548.574 1134.65,521.252 1134.65,521.252 C1134.65,521.252 1172.04,512.672 1172.04,512.672 C1172.04,512.672 1249.28,495.342 1249.28,495.342 C1249.28,495.342 1326.92,478.772 1326.92,478.772 C1341.02,475.763 1362.39,475.872 1368.97,487.954 C1371,491.7 1372.8,495.239 1373.73,499.311 C1373.73,499.311 1390.7,574.291 1390.7,574.291 C1390.7,574.291 1408.3,661.951 1408.3,661.951 C1408.3,661.951 1432.47,781.932 1432.47,781.932 C1432.47,781.932 1473.53,984.492 1473.53,984.492 C1473.53,984.492 1485.54,1044.1 1485.54,1044.1 C1488.27,1057.67 1488.83,1071 1488.39,1085.03 C1487.55,1111.69 1479.78,1129.32 1467.3,1150.33 Z " fill="rgb(231,103,83)"/>
<path d="M763.683,355.673 C763.683,355.673 789.089,352.279 789.089,352.279 C809.403,349.565 832.667,339.982 840.858,321.005 C842.527,317.139 841.747,313.161 839.589,310.72 C833.324,303.635 819.629,312.233 799.972,311.292 C776.781,310.183 751.958,299.529 738.35,280.715 C730.867,270.368 729.92,256.908 737.02,245.981 C753.196,221.089 788.741,222.675 815.129,234.772 C815.129,234.772 837.122,244.854 837.122,244.854 C852.643,251.968 884.031,259.446 893.874,248.077 C897.216,244.216 897.121,239.564 894.297,235.605 C887.352,225.869 870.459,221.408 859.372,210.65 C852.048,203.543 847.193,192.82 850.829,182.745 C854.129,173.601 863.857,168.451 873.405,167.428 C886.373,166.038 899.001,169.362 911.128,174.849 C939.459,187.667 962.254,208.812 979,234.755 C982.33,239.915 989.479,241.603 993.402,237.544 C996.75,234.08 996.853,228.684 996.484,224.121 C995.092,206.867 977.372,187.082 987.581,179.15 C994.774,173.56 1006.35,178.025 1015.76,183.398 C1067.91,213.164 1088.04,281.125 1049.32,330.601 C1003.06,290.662 939.341,289.47 902.278,339.332 C892.094,352.612 886.159,367.46 882.196,384.203 C872.036,399.204 858.319,411.02 841.322,417.348 C811.634,427.182 770.106,416.402 752.071,392.979 C746.281,385.46 743.698,375.145 747.654,366.473 C750.406,360.439 757.352,356.519 763.683,355.673 Z " fill="rgb(230,105,83)"/>
<path d="M1205.96,849.115 C1204.86,848.498 1203.53,848.291 1202.66,848.336 C1198.79,848.534 1198.07,856.306 1199.01,864.007 C1200.28,874.327 1199.91,884.406 1196.11,893.978 C1184.55,889.723 1175.6,882.342 1167.2,873.801 C1167.2,873.801 1150.12,856.419 1150.12,856.419 C1146.71,859.977 1146.26,864.175 1145.47,868.355 C1142.87,882.172 1138.17,895.205 1129.07,906.606 C1117.99,894.404 1116.76,876.972 1106.76,865.148 C1106.76,865.148 1098.74,882.782 1098.74,882.782 C1093.28,894.779 1086.49,905.625 1076.37,915.168 C1076.12,850.607 1061.17,795.786 1035.73,737.319 C1035.73,737.319 1013.85,693.449 1013.85,693.449 C1025.03,687.486 1034.28,680.631 1043.08,671.398 C1053.52,684.488 1071.07,686.37 1085.1,677.978 C1107.51,663.469 1115.72,635.416 1115.81,609.034 C1115.81,609.034 1113.5,575.907 1113.5,575.907 C1113.5,575.907 1123.74,576.136 1123.74,576.136 C1132.27,600.722 1142.66,623.656 1156.26,645.76 C1174.46,675.349 1194.94,702.523 1218.5,727.464 C1217.78,729.267 1219.68,731.148 1221.35,730.413 C1221.35,730.413 1227.53,736.69 1227.53,736.69 C1227.29,738.696 1229.34,740.905 1231.59,740.492 C1247.33,755.723 1264.68,768.712 1283.57,782.377 C1273.26,785.649 1253.21,782.906 1255.84,787.884 C1259.84,795.454 1277.01,802.232 1284.87,815.343 C1277.33,818.158 1269.82,819.378 1261.99,820.011 C1248.74,821.082 1239.22,812.271 1237.42,818.393 C1236.51,821.479 1238.4,825.086 1240.07,827.964 C1246.88,839.726 1251.63,852.06 1251.85,866.296 C1240.58,865.981 1229.9,862.542 1220.01,856.998 C1220.01,856.998 1205.96,849.115 1205.96,849.115 Z " fill="rgb(244,237,234)"/>
<path d="M988.236,1056.28 C984.824,1056.29 982.514,1054.8 978.911,1053.72 C978.911,1053.72 800.086,999.986 800.086,999.986 C800.086,999.986 725.734,975.392 725.734,975.392 C720.776,973.752 715.693,970.044 714.312,965 C712.959,960.056 714.803,955.73 715.812,950.788 C727.175,895.179 739.331,840.379 753.25,785.304 C762.192,749.924 771.603,715.783 782.887,680.993 C782.887,680.993 806.164,615.224 806.164,615.224 C808.163,609.573 810.725,604.744 815.047,600.94 C815.047,600.94 895.177,578.295 895.177,578.295 C895.177,578.295 927.314,570.295 927.314,570.295 C927.314,570.295 937.679,588.193 937.679,588.193 C937.679,588.193 860.773,609.612 860.773,609.612 C849.84,612.657 839.82,616.481 830.244,622.162 C824.473,625.587 819.957,629.87 816.799,635.923 C810.975,647.082 807.125,658.693 803.662,670.713 C803.662,670.713 790.275,717.18 790.275,717.18 C775.635,767.996 763.377,818.691 752.669,870.599 C749.327,886.801 745.968,902.446 745.749,918.834 C745.545,934.032 755.404,943.777 769.374,947.905 C823.631,963.937 877.767,978.67 932.876,991.627 C943.678,994.167 954.997,992.632 963.126,986.305 C971.87,979.499 976.829,969.995 978.175,958.907 C978.175,958.907 988.616,872.913 988.616,872.913 C988.616,872.913 1007.89,716.348 1007.89,716.348 C1015.4,729.839 1021.5,743.226 1026.7,756.964 C1026.7,756.964 1018.1,830.018 1018.1,830.018 C1018.1,830.018 1007.5,923.034 1007.5,923.034 C1007.5,923.034 997.198,1032.92 997.198,1032.92 C996.321,1042.27 993.752,1049.44 988.236,1056.28 Z " fill="rgb(232,103,82)"/>
<path d="M840.422,855.85 C831.918,855.36 826.896,847.889 828.498,840.357 C828.498,840.357 835.669,806.636 835.669,806.636 C843.166,771.377 851.349,736.915 862.63,702.756 C862.63,702.756 873.374,670.225 873.374,670.225 C877.062,660.503 886.474,654.604 897.057,653.75 C897.057,653.75 947.113,649.708 947.113,649.708 C943.899,667.568 951.616,684.343 966.839,693.163 C975.458,698.157 984.816,699.483 995.779,698.493 C995.779,698.493 985.143,771.045 985.143,771.045 C985.143,771.045 976.306,840.889 976.306,840.889 C976.306,840.889 929.913,845.128 929.913,845.128 C929.913,845.128 840.422,855.85 840.422,855.85 Z " fill="rgb(244,237,234)"/>
<path d="M1006.12,1060.63 C1008.76,1062.39 1010.99,1062.85 1013.73,1063.45 C1013.73,1063.45 1110.33,1084.63 1110.33,1084.63 C1110.33,1084.63 1229.09,1106.9 1229.09,1106.9 C1229.09,1106.9 1456.9,1148.74 1456.9,1148.74 C1460.85,1149.47 1463.69,1150.93 1467.3,1150.33 C1467.3,1150.33 1455.72,1169.81 1455.72,1169.81 C1447.88,1183.01 1441.37,1196.72 1437.14,1211.11 C1434.64,1209.79 1432.28,1209.29 1429.16,1208.54 C1429.16,1208.54 1246.71,1164.34 1246.71,1164.34 C1246.71,1164.34 1084.31,1124.76 1084.31,1124.76 C1084.31,1124.76 982.916,1096.17 982.916,1096.17 C985.292,1089.78 988.605,1083.76 992.993,1077.96 C992.993,1077.96 1006.12,1060.63 1006.12,1060.63 Z " fill="rgb(244,238,234)"/>
<path d="M1360.23,1070.55 C1360.23,1070.55 1305.83,1061.31 1305.83,1061.31 C1305.83,1061.31 1173.35,1035.61 1173.35,1035.61 C1173.35,1035.61 1091.05,1019.07 1091.05,1019.07 C1081.44,1017.14 1074.47,1011.45 1069.68,1003.16 C1065.34,994.875 1064.46,985.526 1065.24,975.979 C1065.24,975.979 1068.35,938.321 1068.35,938.321 C1068.35,938.321 1249.83,958.76 1249.83,958.76 C1249.83,958.76 1303.19,966.667 1303.19,966.667 C1314.8,968.387 1324.23,975.538 1328.82,986.2 C1328.82,986.2 1339.66,1011.34 1339.66,1011.34 C1339.66,1011.34 1360.23,1070.55 1360.23,1070.55 Z " fill="rgb(244,237,234)"/>
<path d="M1039.54,379.022 C1031.86,370.354 1022.87,364.484 1011.94,362.335 C993.196,358.648 974.911,367.429 966.546,384.454 C956.134,405.646 961.369,426.436 969.395,447.705 C954.88,456.156 944.781,469.493 943.789,486.061 C941.491,524.477 986.011,550.21 1021.89,549.43 C1014.86,569.315 1001.86,585.938 985.417,598.371 C985.417,598.371 968.777,612.244 968.777,612.244 C941.461,566.411 917.29,522.677 902.342,470.701 C895.653,447.442 892.458,423.915 894.635,399.667 C896.818,375.336 907.158,352.849 924.941,335.927 C944.391,317.418 971.893,311.347 998.013,317.913 C1015.31,322.26 1030.27,330.859 1043.9,342.056 C1048.34,345.696 1052.63,345.966 1057.08,341.839 C1064.7,334.769 1069.31,325.565 1074.05,315.783 C1079.29,317.81 1084.35,320.331 1087.83,325.198 C1081.35,327.332 1075.6,333.616 1078.16,339.787 C1081.26,347.232 1093.1,331.747 1104.07,341.045 C1108.6,344.885 1111.39,350.22 1113.14,355.998 C1099.35,349.642 1084.41,356.975 1080.31,371.324 C1075.73,384.89 1076.37,399.067 1081.51,413.699 C1071.13,417.53 1064.53,425.198 1058.71,435.853 C1058.71,414.669 1053.01,395.265 1039.54,379.022 Z M967.81,352.841 C981.694,341.943 998.786,347.536 999.89,340.96 C1000.92,334.81 994.663,331.185 988.888,330.69 C969.514,329.026 952.014,340.818 945.032,359.034 C941.616,367.945 939.324,377.924 943.245,387.185 C944.247,389.552 948.286,385.878 948.899,383.78 C952.42,371.716 957.804,360.696 967.81,352.841 Z " fill="rgb(244,237,234)"/>
<path d="M1364.56,686.135 C1364.56,686.135 1374.09,738.03 1374.09,738.03 C1374.09,738.03 1321.27,741.431 1321.27,741.431 C1307.44,743.639 1297.51,755.172 1293.12,768.838 C1240.1,735.887 1202.22,690.932 1168.69,636.608 C1168.69,636.608 1239.03,637.124 1239.03,637.124 C1239.03,637.124 1340.89,637.591 1340.89,637.591 C1346.61,638.067 1351.62,638.15 1356.6,640.336 C1356.6,640.336 1364.56,686.135 1364.56,686.135 Z " fill="rgb(244,237,234)"/>
<path d="M815.047,600.94 C810.725,604.744 808.163,609.573 806.164,615.224 C806.164,615.224 782.887,680.993 782.887,680.993 C771.603,715.783 762.192,749.924 753.25,785.304 C739.331,840.379 727.175,895.179 715.812,950.788 C714.803,955.73 712.959,960.056 714.312,965 C715.693,970.044 720.776,973.752 725.734,975.392 C725.734,975.392 800.086,999.986 800.086,999.986 C800.086,999.986 978.911,1053.72 978.911,1053.72 C982.514,1054.8 984.824,1056.29 988.236,1056.28 C979.915,1066.59 971.665,1077.39 966.89,1089.88 C966.413,1089.88 965.586,1090.76 965.394,1090.48 C965.394,1090.48 863.713,1055.24 863.713,1055.24 C863.713,1055.24 720.168,1004.94 720.168,1004.94 C720.168,1004.94 678.772,990.905 678.772,990.905 C691.767,973.04 695.852,966.221 700.679,942.541 C715.41,870.27 731.753,798.807 751.525,727.691 C762.757,687.295 774.356,647.67 789.482,608.473 C789.482,608.473 815.047,600.94 815.047,600.94 Z " fill="rgb(244,237,234)"/>
<path d="M1069.83,599.469 C1069.83,599.469 1059.78,621.765 1059.78,621.765 C1050.2,642.99 1036.49,661.556 1017.08,675.021 C1006.98,682.023 995.225,685.589 983.357,683.67 C970.941,681.663 962.181,671.651 961.732,658.913 C961.093,640.81 975.658,623.848 989.689,612.673 C1012.3,594.665 1034.19,568.341 1034.12,537.509 C1006.38,540.159 975.701,531.64 961.06,508.071 C952.051,493.57 953.494,476.482 965.496,464.166 C985.61,443.526 1019.03,444.279 1044.26,458.777 C1038.45,464.02 1032.12,467.436 1025.62,470.527 C1015.01,475.573 1010,485.846 1013.76,497.178 C1019.62,514.845 1029.63,530.072 1042.58,543.372 C1058.74,559.968 1078.72,570.775 1102.45,574.83 C1102.45,574.83 1103.45,597.915 1103.45,597.915 C1104.57,623.692 1098.72,655.453 1075.72,667.532 C1068.07,671.549 1054.77,669.27 1053.08,659.965 C1053.08,659.965 1065.35,636.32 1065.35,636.32 C1069.31,625.077 1077.16,598.529 1073.39,597.009 C1072.22,596.538 1070.56,597.85 1069.83,599.469 Z " fill="rgb(231,104,83)"/>
<path d="M685.965,1352.98 C685.965,1352.98 652.039,1327.07 652.039,1327.07 C641.838,1319.28 635.75,1309.73 633.749,1296.94 C631.045,1279.65 629.292,1262.61 629.069,1245.06 C629.01,1240.44 629.566,1235.74 631.864,1231.98 C636.189,1228.11 641.134,1226.67 646.69,1223.98 C646.69,1223.98 705.372,1261.14 705.372,1261.14 C705.372,1261.14 700.092,1320.96 700.092,1320.96 C700.092,1320.96 700.245,1361.71 700.245,1361.71 C694.618,1359.57 690.486,1356.44 685.965,1352.98 Z " fill="rgb(231,105,84)"/>
<path d="M1104.22,476.647 C1085.04,485.078 1065.14,487.824 1045.34,482.61 C1041.02,481.471 1036.79,480.284 1033.56,477.237 C1053.39,470.447 1061.7,455.922 1070.23,438.235 C1074.41,429.571 1081.73,423.972 1091.46,422.288 C1108.02,419.422 1125.58,420.795 1141.58,426.39 C1160.46,432.993 1174.03,448.283 1178.2,468.637 C1153.34,459.728 1129.07,466.028 1104.22,476.647 Z M1102.47,442.066 C1104.08,440.225 1102.82,437.326 1100.86,436.08 C1095.9,432.944 1088.86,433.333 1085.09,437.888 C1082.81,440.635 1083.91,443.933 1086.28,445.3 C1092.04,448.628 1094.11,439.052 1102.47,442.066 Z " fill="rgb(243,238,234)"/>
<path d="M1007.65,413.747 C1007.17,407.501 1012.16,403.43 1013.68,399.025 C1011.27,394.997 1004.63,393.239 999.89,394.249 C995.464,395.193 990.813,398.163 988.059,403.237 C981.944,414.506 983.987,427.828 990.732,439.113 C990.732,439.113 978.229,442.841 978.229,442.841 C970.926,423.933 966.581,401.506 979.203,384.265 C986.9,373.752 999.378,369.307 1012.06,373.049 C1040.41,381.414 1054.54,421.463 1047.27,450.929 C1040.4,446.241 1033.27,442.994 1024.89,440.688 C1029.3,430.241 1028.45,418.427 1021.84,408.742 C1018.08,412.992 1013.01,416.454 1007.65,413.747 Z " fill="rgb(243,239,235)"/>
<path d="M1025.3,496.946 C1023.73,493.061 1022.34,488.913 1024.34,484.143 C1043.42,514.218 1066.91,537.237 1099.99,550.798 C1107.9,554.037 1115.6,556.414 1124.16,556.477 C1124.92,541.078 1115.94,526.08 1115.96,512.966 C1115.97,501.135 1123.13,479.265 1134.08,478.347 C1130.26,486.811 1126.47,494.911 1124.28,504.061 C1120.3,520.677 1129.83,544.966 1136.03,563.733 C1099.99,568.735 1066.86,556.814 1044.28,528.786 C1036.34,518.926 1030.02,508.601 1025.3,496.946 Z " fill="rgb(244,239,237)"/>
<path d="M914.547,544.504 C889.13,550.067 856.315,561.022 836.29,577.259 C836.007,577.488 836.009,577.84 836.247,578.369 C836.247,578.369 799.932,588.96 799.932,588.96 C819.438,559.273 855.241,542.041 888.209,532.308 C888.209,532.308 906.628,526.87 906.628,526.87 C906.628,526.87 914.547,544.504 914.547,544.504 Z " fill="rgb(245,237,235)"/>
<path d="M667.211,1149.51 C667.185,1152.56 667.113,1156.51 665.189,1158.18 C662.493,1160.51 657.283,1160.33 654.789,1158.27 C653.408,1126.17 653.823,1094.68 656.161,1063.13 C656.161,1063.13 659.931,1030.95 659.931,1030.95 C666.386,1030.67 670.741,1035.56 670.457,1042.08 C670.457,1042.08 667.557,1108.51 667.557,1108.51 C667.557,1108.51 667.471,1117.97 667.471,1117.97 C667.471,1117.97 667.211,1149.51 667.211,1149.51 Z " fill="rgb(235,110,88)"/>
<path d="M1104.99,396.044 C1103.94,391.302 1107.66,387.242 1109.98,384.059 C1106.8,378.08 1097.73,378.613 1093.58,383.689 C1087.37,391.292 1088.55,400.36 1089.75,410.312 C1085.24,398.686 1084.56,385.597 1088.63,373.921 C1091.67,365.199 1099.4,360.308 1108.16,363.789 C1123.22,369.768 1128.53,394.672 1129.45,412.308 C1129.45,412.308 1119.37,411.061 1119.37,411.061 C1119.34,404.442 1118.62,398.742 1115.99,392.687 C1112.25,394.413 1108.92,396.046 1104.99,396.044 Z " fill="rgb(242,238,235)"/>
<path d="M914.547,544.504 C914.547,544.504 919.592,555.641 919.592,555.641 C919.592,555.641 836.247,578.369 836.247,578.369 C836.009,577.84 836.007,577.488 836.29,577.259 C856.315,561.022 889.13,550.067 914.547,544.504 Z " fill="rgb(227,106,86)"/>
<path d="M1092.77,511.372 C1099.88,518.013 1106.58,531.812 1101.63,540.556 C1084.95,533.598 1069.86,524.126 1056.56,511.044 C1062.84,502.15 1076.35,508.88 1084.81,517.525 C1084.95,513.989 1083.28,511.976 1082.51,508.566 C1086.31,507.102 1089.92,508.713 1092.77,511.372 Z " fill="rgb(229,104,86)"/>
<path d="M1167.99,477.128 C1167.87,478.853 1165.92,477.653 1165.12,477.844 C1165.12,477.844 1143.08,483.047 1143.08,483.047 C1144.22,480.822 1145.02,478.183 1147.18,476.203 C1154.38,475.45 1161.54,475.184 1167.99,477.128 Z " fill="rgb(242,235,235)"/>
<path d="M716.065,1203.96 C715.688,1205.19 715.622,1206.3 714.485,1208.06 C713.213,1206.34 714.218,1204.22 714.547,1202.76 C714.776,1203.5 715.284,1204.13 716.065,1203.96 Z " fill="rgb(206,207,219)"/>
<path d="M966.89,1089.88 C958.94,1110.69 955.7,1153.05 955.785,1178.13 C955.785,1178.13 956.354,1346.54 956.354,1346.54 C956.354,1346.54 956.998,1372.98 956.998,1372.98 C956.998,1372.98 932.995,1372.98 932.995,1372.98 C932.934,1372.77 932.903,1372.25 933.501,1371.72 C933.501,1371.72 912.26,1255.82 912.26,1255.82 C909.425,1240.35 904.9,1226.31 899.266,1211.73 C891.003,1190.35 877.016,1172.87 857.526,1160.36 C837.496,1147.51 816.311,1137.02 793.981,1128.37 C784.443,1124.67 775.021,1122.55 765.03,1121.27 C750.366,1119.38 737.249,1124.91 727.249,1135.4 C702.845,1161 698.887,1202.05 694.8,1236.39 C694.8,1236.39 657.102,1212.89 657.102,1212.89 C657.102,1212.89 655.674,1174.95 655.674,1174.95 C655.674,1174.95 665.332,1174.32 665.332,1174.32 C677.575,1173.52 681.269,1160.48 681.525,1147.6 C681.525,1147.6 682.77,1085.03 682.77,1085.03 C682.77,1085.03 684.329,1049.74 684.329,1049.74 C684.329,1049.74 684.362,1036.79 684.362,1036.79 C684.387,1027.35 677.361,1020.45 668.307,1018.67 C658.9,1016.82 672.339,999.749 678.772,990.905 C678.772,990.905 720.168,1004.94 720.168,1004.94 C720.168,1004.94 863.713,1055.24 863.713,1055.24 C863.713,1055.24 965.394,1090.48 965.394,1090.48 C965.586,1090.76 966.413,1089.88 966.89,1089.88 Z " fill="rgb(232,104,83)"/>
<path d="M1721.14,836.747 C1711.82,837.908 1703.28,836.923 1693.9,836.468 C1693.9,836.468 1597.1,831.769 1597.1,831.769 C1590.08,831.428 1583.89,830.912 1577.46,828.499 C1577.46,828.499 1561.71,779.277 1561.71,779.277 C1559.18,771.382 1556.33,763.928 1551.41,757.147 C1551.41,757.147 1555.72,727.864 1555.72,727.864 C1555.72,727.864 1569.6,650.849 1569.6,650.849 C1572.01,637.482 1580.48,626.238 1593.98,623.909 C1593.98,623.909 1665.72,611.53 1665.72,611.53 C1665.72,611.53 1793.78,595.504 1793.78,595.504 C1801.44,594.545 1809.68,596.19 1814.74,602.249 C1819.81,608.324 1821.25,616.272 1823.43,623.733 C1823.43,623.733 1835.08,693.947 1835.08,693.947 C1835.08,693.947 1839.69,722.481 1839.69,722.481 C1839.69,722.481 1806,724.175 1806,724.175 C1790.72,724.943 1776.21,727.478 1761.71,731.501 C1748.26,735.231 1738.83,743.844 1734.2,757.442 C1725.65,782.537 1722.56,808.831 1721.14,836.747 Z " fill="rgb(243,238,234)"/>
<path d="M1651.01,454.164 C1651.01,454.164 1650,453.986 1650,453.986 C1650,453.986 1492.94,454.056 1492.94,454.056 C1492.94,454.056 1485.98,455.184 1485.98,455.184 C1485.94,454.531 1486.55,453.656 1487.38,453.012 C1487.38,453.012 1650.68,452.998 1650.68,452.998 C1651.1,453.521 1651.04,453.89 1651.01,454.164 Z " fill="rgb(202,116,112)"/>
<path d="M1650,453.986 C1650.11,454.311 1649.97,455.216 1648.85,455.001 C1648.85,455.001 1494.15,455.001 1494.15,455.001 C1493.03,455.216 1492.89,454.311 1492.94,454.056 C1492.94,454.056 1650,453.986 1650,453.986 Z " fill="rgb(74,28,42)"/>
<path d="M1095.02,1221.11 C1089.43,1221.13 1084.21,1220.86 1078.87,1219.25 C1078.87,1219.25 1024.25,1202.84 1024.25,1202.84 C1013.56,1199.63 1005.66,1191.53 1003.72,1180.17 C1001.84,1169.16 1002.02,1157.06 1005.27,1146.51 C1008.06,1137.44 1016.24,1133.8 1025.11,1135.9 C1025.11,1135.9 1100.15,1153.65 1100.15,1153.65 C1109.69,1155.91 1116.39,1163.3 1117.78,1173.13 C1119.49,1185.31 1118.14,1198.03 1113.27,1209.08 C1109.89,1216.73 1103.17,1221.07 1095.02,1221.11 Z M1102.76,1191.37 C1104.64,1182.02 1103.87,1170.3 1096.63,1168.36 C1096.63,1168.36 1050.97,1156.14 1050.97,1156.14 C1050.97,1156.14 1026.27,1150.48 1026.27,1150.48 C1024.53,1150.08 1020.11,1148.99 1018.89,1150.81 C1015.82,1155.41 1016.64,1161.64 1017,1166.79 C1019.92,1170.25 1023.3,1171.58 1027.28,1172.69 C1027.28,1172.69 1050.95,1179.29 1050.95,1179.29 C1050.95,1179.29 1097.65,1192.52 1097.65,1192.52 C1099.11,1192.93 1102.25,1193.88 1102.76,1191.37 Z " fill="rgb(21,22,57)"/>
<path d="M967.81,352.841 C957.804,360.696 952.42,371.716 948.899,383.78 C948.286,385.878 944.247,389.552 943.245,387.185 C939.324,377.924 941.616,367.945 945.032,359.034 C952.014,340.818 969.514,329.026 988.888,330.69 C994.663,331.185 1000.92,334.81 999.89,340.96 C998.786,347.536 981.694,341.943 967.81,352.841 Z " fill="rgb(22,24,57)"/>
<path d="M1102.47,442.066 C1094.11,439.052 1092.04,448.628 1086.28,445.3 C1083.91,443.933 1082.81,440.635 1085.09,437.888 C1088.86,433.333 1095.9,432.944 1100.86,436.08 C1102.82,437.326 1104.08,440.225 1102.47,442.066 Z " fill="rgb(21,20,50)"/>
<path d="M1102.76,1191.37 C1102.25,1193.88 1099.11,1192.93 1097.65,1192.52 C1097.65,1192.52 1050.95,1179.29 1050.95,1179.29 C1050.95,1179.29 1027.28,1172.69 1027.28,1172.69 C1023.3,1171.58 1019.92,1170.25 1017,1166.79 C1016.64,1161.64 1015.82,1155.41 1018.89,1150.81 C1020.11,1148.99 1024.53,1150.08 1026.27,1150.48 C1026.27,1150.48 1050.97,1156.14 1050.97,1156.14 C1050.97,1156.14 1096.63,1168.36 1096.63,1168.36 C1103.87,1170.3 1104.64,1182.02 1102.76,1191.37 Z " fill="rgb(231,103,82)"/>
</svg>