<svg xmlns="http://www.w3.org/2000/svg" width="1024" height="1024">
<defs>
</defs>
<path d="M926,0 C926.018,0.919519 926.877,1.50575 928.036,0.892653 C977.598,8.20513 1016.48,47.3222 1023.13,96.946 C1022.48,98.1031 1023.08,98.9854 1024,99 C1024,99 1024,923 1024,923 C1023.07,922.994 1022.46,923.913 1023.16,925.009 C1016.35,976.135 976.124,1016.24 925.007,1023.19 C923.93,1022.44 922.98,1023.07 923,1024 C923,1024 100,1024 100,1024 C100.015,1023.05 99.0075,1022.51 97.9659,1023.14 C47.3994,1015.7 7.20786,975.068 0.854381,924.056 C1.50449,922.984 0.947339,921.994 0,922 C0,922 0.0888746,99.479 0.0888746,99.479 C7.44641,46.5797 46.7539,7.43402 99.4881,0.0838851 C99.4881,0.0838851 926,0 926,0 Z M568.971,198.198 C568.971,198.198 665.928,246.172 665.928,246.172 C665.928,246.172 773.413,299.66 773.413,299.66 C773.413,299.66 773.547,244.535 773.547,244.535 C773.547,244.535 512.029,106.584 512.029,106.584 C512.029,106.584 250.431,244.483 250.431,244.483 C250.431,244.483 250.669,299.81 250.669,299.81 C250.669,299.81 332.093,259.143 332.093,259.143 C332.093,259.143 441.003,205.193 441.003,205.193 C441.003,205.193 512.02,170.038 512.02,170.038 C512.02,170.038 568.971,198.198 568.971,198.198 Z M512.06,315.45 C512.06,315.45 730.129,399.581 730.129,399.581 C730.129,399.581 730.4,310.939 730.4,310.939 C730.4,310.939 512.011,215.95 512.011,215.95 C512.011,215.95 293.555,311.119 293.555,311.119 C293.555,311.119 293.868,399.635 293.868,399.635 C293.868,399.635 512.06,315.45 512.06,315.45 Z M552.478,401.365 C552.478,401.365 581.951,411.634 581.951,411.634 C581.951,411.634 581.898,469.143 581.898,469.143 C581.898,469.143 730.172,516.156 730.172,516.156 C730.172,516.156 730.255,426.125 730.255,426.125 C730.255,426.125 512.107,342.027 512.107,342.027 C512.107,342.027 293.737,426.086 293.737,426.086 C293.737,426.086 293.836,516.102 293.836,516.102 C293.836,516.102 511.912,447.257 511.912,447.257 C511.912,447.257 552.145,459.558 552.145,459.558 C552.145,459.558 552.478,401.365 552.478,401.365 Z M552.609,529.357 C552.609,529.357 581.953,538.09 581.953,538.09 C581.953,538.09 581.873,596.418 581.873,596.418 C581.873,596.418 730.215,632.972 730.215,632.972 C730.215,632.972 730.27,542.351 730.27,542.351 C730.27,542.351 512.166,472.138 512.166,472.138 C512.166,472.138 293.784,542.313 293.784,542.313 C293.784,542.313 293.848,633.043 293.848,633.043 C293.848,633.043 511.905,578.876 511.905,578.876 C511.905,578.876 552.161,588.694 552.161,588.694 C552.161,588.694 552.609,529.357 552.609,529.357 Z M538.259,829.263 C538.259,829.263 556.659,810.588 556.659,810.588 C559.487,807.718 558.491,803.964 555.842,801.184 C555.842,801.184 538.022,782.487 538.022,782.487 C538.022,782.487 558.393,761.126 558.393,761.126 C558.393,761.126 558.245,733.763 558.245,733.763 C558.245,733.763 694.531,647.825 694.531,647.825 C694.531,647.825 536.396,608.825 536.396,608.825 C536.396,608.825 511.853,602.794 511.853,602.794 C511.853,602.794 329.452,647.81 329.452,647.81 C329.452,647.81 465.856,733.599 465.856,733.599 C465.856,733.599 465.722,877.218 465.722,877.218 C465.722,877.218 504.774,916.388 504.774,916.388 C504.774,916.388 504.798,733.951 504.798,733.951 C504.798,733.951 519.23,733.833 519.23,733.833 C519.23,733.833 519.226,916.481 519.226,916.481 C519.226,916.481 558.404,877.224 558.404,877.224 C558.404,877.224 558.352,850.995 558.352,850.995 C558.352,850.995 538.259,829.263 538.259,829.263 Z " fill="rgb(181,60,8)"/>
<path d="M100,1024 C100,1024 0,1024 0,1024 C0,1024 0,922 0,922 C0.947339,921.994 1.50449,922.984 0.854381,924.056 C7.20786,975.068 47.3994,1015.7 97.9659,1023.14 C99.0075,1022.51 100.015,1023.05 100,1024 Z " fill="rgb(254,254,254)"/>
<path d="M1024,923 C1024,923 1024,1024 1024,1024 C1024,1024 923,1024 923,1024 C922.98,1023.07 923.93,1022.44 925.007,1023.19 C976.124,1016.24 1016.35,976.135 1023.16,925.009 C1022.46,923.913 1023.07,922.994 1024,923 Z " fill="rgb(254,254,254)"/>
<path d="M99.4881,0.0838851 C46.7539,7.43402 7.44641,46.5797 0.0888746,99.479 C0.0888746,99.479 0,0 0,0 C0,0 99.4881,0.0838851 99.4881,0.0838851 Z " fill="rgb(255,254,254)"/>
<path d="M926,0 C926,0 1024,0 1024,0 C1024,0 1024,99 1024,99 C1023.08,98.9854 1022.48,98.1031 1023.13,96.946 C1016.48,47.3222 977.598,8.20513 928.036,0.892653 C926.877,1.50575 926.018,0.919519 926,0 Z " fill="rgb(255,254,254)"/>
<path d="M538.259,829.263 C538.259,829.263 558.352,850.995 558.352,850.995 C558.352,850.995 558.404,877.224 558.404,877.224 C558.404,877.224 519.226,916.481 519.226,916.481 C519.226,916.481 519.23,733.833 519.23,733.833 C519.23,733.833 504.798,733.951 504.798,733.951 C504.798,733.951 504.774,916.388 504.774,916.388 C504.774,916.388 465.722,877.218 465.722,877.218 C465.722,877.218 465.856,733.599 465.856,733.599 C465.856,733.599 329.452,647.81 329.452,647.81 C329.452,647.81 511.853,602.794 511.853,602.794 C511.853,602.794 536.396,608.825 536.396,608.825 C536.396,608.825 694.531,647.825 694.531,647.825 C694.531,647.825 558.245,733.763 558.245,733.763 C558.245,733.763 558.393,761.126 558.393,761.126 C558.393,761.126 538.022,782.487 538.022,782.487 C538.022,782.487 555.842,801.184 555.842,801.184 C558.491,803.964 559.487,807.718 556.659,810.588 C556.659,810.588 538.259,829.263 538.259,829.263 Z " fill="rgb(254,254,254)"/>
<path d="M568.971,198.198 C568.971,198.198 512.02,170.038 512.02,170.038 C512.02,170.038 441.003,205.193 441.003,205.193 C441.003,205.193 332.093,259.143 332.093,259.143 C332.093,259.143 250.669,299.81 250.669,299.81 C250.669,299.81 250.431,244.483 250.431,244.483 C250.431,244.483 512.029,106.584 512.029,106.584 C512.029,106.584 773.547,244.535 773.547,244.535 C773.547,244.535 773.413,299.66 773.413,299.66 C773.413,299.66 665.928,246.172 665.928,246.172 C665.928,246.172 568.971,198.198 568.971,198.198 Z " fill="rgb(254,254,254)"/>
<path d="M512.06,315.45 C512.06,315.45 293.868,399.635 293.868,399.635 C293.868,399.635 293.555,311.119 293.555,311.119 C293.555,311.119 512.011,215.95 512.011,215.95 C512.011,215.95 730.4,310.939 730.4,310.939 C730.4,310.939 730.129,399.581 730.129,399.581 C730.129,399.581 512.06,315.45 512.06,315.45 Z M427.781,331.993 C427.781,331.993 504.223,302.741 504.223,302.741 C504.223,302.741 504.166,235.862 504.166,235.862 C504.166,235.862 427.449,269.382 427.449,269.382 C427.449,269.382 427.781,331.993 427.781,331.993 Z M418.373,335.666 C418.373,335.666 418.274,273.302 418.274,273.302 C418.274,273.302 309.386,320.635 309.386,320.635 C309.386,320.635 309.455,377.472 309.455,377.472 C309.455,377.472 418.373,335.666 418.373,335.666 Z " fill="rgb(254,254,254)"/>
<path d="M552.609,529.357 C552.609,529.357 552.161,588.694 552.161,588.694 C552.161,588.694 511.905,578.876 511.905,578.876 C511.905,578.876 293.848,633.043 293.848,633.043 C293.848,633.043 293.784,542.313 293.784,542.313 C293.784,542.313 512.166,472.138 512.166,472.138 C512.166,472.138 730.27,542.351 730.27,542.351 C730.27,542.351 730.215,632.972 730.215,632.972 C730.215,632.972 581.873,596.418 581.873,596.418 C581.873,596.418 581.953,538.09 581.953,538.09 C581.953,538.09 552.609,529.357 552.609,529.357 Z M504.283,564.938 C504.283,564.938 504.198,490.696 504.198,490.696 C504.198,490.696 427.594,515.347 427.594,515.347 C427.594,515.347 427.58,584.135 427.58,584.135 C427.58,584.135 504.283,564.938 504.283,564.938 Z M418.537,586.47 C418.537,586.47 418.299,518.366 418.299,518.366 C418.299,518.366 309.371,553.297 309.371,553.297 C309.371,553.297 309.493,613.529 309.493,613.529 C309.493,613.529 418.537,586.47 418.537,586.47 Z " fill="rgb(254,254,254)"/>
<path d="M552.478,401.365 C552.478,401.365 552.145,459.558 552.145,459.558 C552.145,459.558 511.912,447.257 511.912,447.257 C511.912,447.257 293.836,516.102 293.836,516.102 C293.836,516.102 293.737,426.086 293.737,426.086 C293.737,426.086 512.107,342.027 512.107,342.027 C512.107,342.027 730.255,426.125 730.255,426.125 C730.255,426.125 730.172,516.156 730.172,516.156 C730.172,516.156 581.898,469.143 581.898,469.143 C581.898,469.143 581.951,411.634 581.951,411.634 C581.951,411.634 552.478,401.365 552.478,401.365 Z M504.322,433.763 C504.322,433.763 503.891,361.261 503.891,361.261 C503.891,361.261 427.467,390.713 427.467,390.713 C427.467,390.713 427.667,458.08 427.667,458.08 C427.667,458.08 504.322,433.763 504.322,433.763 Z M309.527,495.515 C309.527,495.515 418.402,460.978 418.402,460.978 C418.402,460.978 418.308,394.135 418.308,394.135 C418.308,394.135 309.359,436.15 309.359,436.15 C309.359,436.15 309.527,495.515 309.527,495.515 Z " fill="rgb(254,254,254)"/>
<path d="M418.373,335.666 C418.373,335.666 309.455,377.472 309.455,377.472 C309.455,377.472 309.386,320.635 309.386,320.635 C309.386,320.635 418.274,273.302 418.274,273.302 C418.274,273.302 418.373,335.666 418.373,335.666 Z " fill="rgb(181,60,7)"/>
<path d="M427.781,331.993 C427.781,331.993 427.449,269.382 427.449,269.382 C427.449,269.382 504.166,235.862 504.166,235.862 C504.166,235.862 504.223,302.741 504.223,302.741 C504.223,302.741 427.781,331.993 427.781,331.993 Z " fill="rgb(181,60,8)"/>
<path d="M418.537,586.47 C418.537,586.47 309.493,613.529 309.493,613.529 C309.493,613.529 309.371,553.297 309.371,553.297 C309.371,553.297 418.299,518.366 418.299,518.366 C418.299,518.366 418.537,586.47 418.537,586.47 Z " fill="rgb(181,60,7)"/>
<path d="M504.283,564.938 C504.283,564.938 427.58,584.135 427.58,584.135 C427.58,584.135 427.594,515.347 427.594,515.347 C427.594,515.347 504.198,490.696 504.198,490.696 C504.198,490.696 504.283,564.938 504.283,564.938 Z " fill="rgb(180,60,7)"/>
<path d="M309.527,495.515 C309.527,495.515 309.359,436.15 309.359,436.15 C309.359,436.15 418.308,394.135 418.308,394.135 C418.308,394.135 418.402,460.978 418.402,460.978 C418.402,460.978 309.527,495.515 309.527,495.515 Z " fill="rgb(181,60,7)"/>
<path d="M504.322,433.763 C504.322,433.763 427.667,458.08 427.667,458.08 C427.667,458.08 427.467,390.713 427.467,390.713 C427.467,390.713 503.891,361.261 503.891,361.261 C503.891,361.261 504.322,433.763 504.322,433.763 Z " fill="rgb(181,60,7)"/>
</svg>